# planar UV mapped onto the art bbox + bbox padded with degenerate tris
# 121269898741708 replacement, solarxstarz
v -0.037749 -1.140413 -0.245886
v -0.037749 -0.645423 -0.460753
v -0.037749 -0.869839 -0.392314
v -0.037749 -1.116539 -0.237928
v -0.037749 -0.599266 -0.548291
v -0.037749 -0.460797 -0.596039
v -0.037749 -0.266621 -0.597631
v -0.037749 0.167888 -0.615139
v -0.037749 -0.159983 -0.454386
v -0.037749 -0.511728 -0.309550
v -0.037749 -0.514911 -0.279310
v -0.037749 -0.166349 -0.155164
v -0.037749 0.059659 -0.042160
v -0.037749 -0.288903 -0.040569
v -0.037749 -0.350976 -0.050118
v -0.037749 -0.366892 -0.031019
v -0.037749 -0.027879 0.199764
v -0.037749 0.010319 0.198172
v -0.037749 0.046926 0.223638
v -0.037749 0.062842 0.234779
v -0.037749 0.116957 0.207722
v -0.037749 0.452786 0.215680
v -0.037749 0.619905 0.285711
v -0.037749 0.791798 0.406673
v -0.037749 0.812489 0.395532
v -0.037749 0.678794 0.242737
v -0.037749 0.562607 0.074027
v -0.037749 0.559424 -0.040569
v -0.037749 0.611947 -0.147206
v -0.037749 0.591256 -0.166306
v -0.037749 0.454378 -0.081950
v -0.037749 0.409812 -0.078767
v -0.037749 -0.026288 -0.263394
v -0.037749 0.524408 -0.497360
v -0.037749 0.667653 -0.471894
v -0.037749 0.787023 -0.392314
v -0.037749 0.807714 -0.408230
v -0.037749 0.694710 -0.580123
v -0.037749 0.678794 -0.796582
v -0.037749 0.771107 -0.962109
v -0.037749 0.954142 -0.912769
v -0.037749 1.116486 -0.818864
v -0.037749 1.313845 -0.640604
v -0.037749 1.321803 -0.678803
v -0.037749 1.133994 -0.930277
v -0.037749 0.892069 -1.148327
v -0.037749 0.629454 -1.291572
v -0.037749 0.511675 -1.299530
v -0.037749 0.385939 -1.262923
v -0.037749 0.409813 -1.296346
v -0.037749 0.455969 -1.328179
v -0.037749 0.554649 -1.358419
v -0.037749 0.549874 -1.382293
v -0.037749 0.377980 -1.396618
v -0.037749 0.156747 -1.366377
v -0.037749 -0.011963 -1.289980
v -0.037749 -0.099502 -1.205625
v -0.037749 -0.080402 -1.267698
v -0.037749 -0.008780 -1.350461
v -0.037749 -0.035837 -1.364786
v -0.037749 -0.222055 -1.235865
v -0.037749 -0.392357 -1.025773
v -0.037749 -0.448063 -0.933460
v -0.037749 -0.401907 -0.884120
v -0.037749 -0.233196 -1.006674
v -0.037749 -0.077219 -1.073522
v -0.037749 0.193354 -1.095804
v -0.037749 0.390713 -1.044873
v -0.037749 0.543507 -0.962109
v -0.037749 0.646962 -1.025773
v -0.037749 0.693118 -1.025773
v -0.037749 0.632638 -0.950968
v -0.037749 0.487801 -0.868204
v -0.037749 0.306358 -0.847513
v -0.037749 0.131281 -0.844330
v -0.037749 0.066026 -0.901628
v -0.037749 0.042151 -0.907995
v -0.037749 -0.037429 -0.850697
v -0.037749 -0.152024 -0.850697
v -0.037749 -0.360525 -0.841147
v -0.037749 -0.484670 -0.885712
v -0.037749 -0.497403 -1.094213
v -0.037749 -0.553109 -1.180159
v -0.037749 -0.666113 -1.232682
v -0.037749 -0.826866 -1.218358
v -0.037749 -0.962152 -1.135594
v -0.037748 -1.092664 -0.978025
v -0.037748 -1.181794 -0.782258
v -0.037748 -1.143595 -0.759975
v -0.037749 -1.008309 -0.939827
v -0.037749 -0.842782 -1.003491
v -0.037749 -0.739327 -0.919136
v -0.037749 -0.717045 -0.798174
v -0.037749 -0.802992 -0.645379
v -0.037749 -0.914404 -0.521234
v -0.037749 -1.138821 -0.250661
v -0.037748 -1.488974 0.031054
v -0.037749 -1.195656 0.105090
v -0.037748 -1.414938 0.049704
v -0.037748 -1.471454 0.046313
v -0.037749 -1.061712 0.175170
v -0.037749 -0.874079 0.352066
v -0.037749 -0.843560 0.364499
v -0.037749 -0.837343 0.357152
v -0.037749 -0.849212 0.329459
v -0.037749 -0.887643 0.242424
v -0.037749 -0.883686 0.185908
v -0.037749 -0.846951 0.120914
v -0.037749 -0.794956 0.080788
v -0.037749 -0.728267 0.053095
v -0.037749 -0.682489 0.037836
v -0.037749 -0.693792 0.024272
v -0.037749 -0.782523 -0.006247
v -0.037749 -0.835648 -0.043548
v -0.037749 -0.879730 -0.102890
v -0.037749 -0.889338 -0.179186
v -0.037749 -0.864471 -0.243050
v -0.037749 -0.835083 -0.291088
v -0.037749 -0.842430 -0.302392
v -0.037749 -0.865601 -0.288828
v -0.037749 -0.935681 -0.231181
v -0.037749 -0.988241 -0.184273
v -0.037749 -1.037410 -0.133973
v -0.037749 -1.118229 -0.076327
v -0.037749 -1.231261 -0.028853
v -0.037749 -1.325078 -0.003986
v -0.037748 -1.439805 0.018055
v -0.037748 -1.489540 0.030489
v -0.037749 -1.169341 0.844492
v -0.037749 -0.857364 1.247383
v -0.037749 -1.030578 1.108620
v -0.037749 -1.139675 0.923921
v -0.037749 -0.685107 1.283748
v -0.037749 -0.571225 1.239727
v -0.037749 -0.505193 1.151684
v -0.037749 -0.502322 1.042588
v -0.037749 -0.509978 0.981341
v -0.037749 -0.486054 0.937319
v -0.037749 -0.636300 0.850233
v -0.037749 -0.709988 0.884685
v -0.037749 -0.733913 0.997609
v -0.037749 -0.820999 1.065555
v -0.037749 -0.908084 1.063641
v -0.037749 -0.988471 1.019620
v -0.037749 -1.080342 0.938276
v -0.037749 -1.148288 0.838750
v -0.037749 -1.169341 0.843534
v -0.037749 -1.144596 0.304862
v -0.037749 -0.918775 0.852480
v -0.037749 -0.910306 0.681702
v -0.037749 -0.939946 0.598431
v -0.037749 -0.903250 0.858126
v -0.037749 -0.815744 0.787556
v -0.037749 -0.529232 0.773443
v -0.037749 -0.554637 0.838366
v -0.037749 -0.454429 0.896233
v -0.037749 -0.444549 0.982328
v -0.037749 -0.300588 1.212383
v -0.037749 -0.097349 1.405743
v -0.037749 -0.011254 1.428325
v -0.037749 -0.023957 1.390218
v -0.037749 -0.107228 1.273073
v -0.037749 0.058473 1.397425
v -0.037749 0.369698 1.480427
v -0.037749 0.554711 1.438205
v -0.037749 0.551889 1.412800
v -0.037749 0.438978 1.377515
v -0.037749 0.392402 1.329528
v -0.037749 0.595642 1.364813
v -0.037749 0.852514 1.230731
v -0.037749 1.064221 1.068422
v -0.037749 1.285809 0.787556
v -0.037749 1.321094 0.724044
v -0.037749 1.299923 0.712753
v -0.037749 1.109386 0.887765
v -0.037749 0.834165 1.024669
v -0.037749 0.671856 1.031726
v -0.037749 0.642217 0.987973
v -0.037749 0.666211 0.894822
v -0.037749 0.645040 0.877885
v -0.037749 0.516604 1.016201
v -0.037749 0.352883 1.117821
v -0.037749 0.121416 1.155928
v -0.037749 -0.145336 1.105118
v -0.037749 -0.318936 1.009144
v -0.037749 -0.320348 0.951277
v -0.037749 -0.355632 0.810138
v -0.037749 -0.334462 0.783322
v -0.037749 -0.035248 0.780499
v -0.037749 0.057904 0.832721
v -0.037749 0.112947 0.788968
v -0.037749 0.553300 0.786145
v -0.037749 0.729693 0.882840
v -0.037749 0.743837 0.858126
v -0.037749 0.582070 0.654317
v -0.037749 0.354294 0.443178
v -0.037749 0.338769 0.440356
v -0.037749 0.287959 0.478463
v -0.037749 -0.090292 0.227236
v -0.037749 -0.461486 -0.031047
v -0.037749 -0.618150 -0.152426
v -0.037749 -0.633675 -0.142547
v -0.037749 -0.532055 0.062104
v -0.037749 -0.523587 0.533507
v -0.037749 -0.725415 0.537741
v -0.037749 -0.811510 0.499634
v -0.037749 -1.124837 0.296394
v -0.037749 -1.144597 0.304862
v -0.037749 0.662878 0.045378
v -0.037749 1.049638 0.378024
v -0.037749 1.016215 0.272978
v -0.037749 0.849096 0.105859
v -0.037749 0.998707 0.519677
v -0.037749 0.925493 0.623131
v -0.037749 0.938226 0.634273
v -0.037749 1.118078 0.534001
v -0.037749 1.251772 0.366883
v -0.037749 1.275646 0.269795
v -0.037749 1.224715 0.288894
v -0.037749 1.186517 0.271386
v -0.037749 1.153093 0.198172
v -0.037749 1.197658 0.131325
v -0.037749 1.270872 0.171115
v -0.037749 1.352044 0.110634
v -0.037749 1.593968 0.032645
v -0.037749 1.388650 -0.023061
v -0.037749 1.282013 -0.093092
v -0.037749 1.272463 -0.101050
v -0.037749 1.242223 -0.072401
v -0.037749 1.196066 -0.069218
v -0.037749 1.157867 -0.109008
v -0.037749 1.170600 -0.179038
v -0.037749 1.216757 -0.225195
v -0.037749 1.261322 -0.194954
v -0.037749 1.289971 -0.206096
v -0.037749 1.234265 -0.330241
v -0.037749 1.132402 -0.451203
v -0.037749 0.939817 -0.568982
v -0.037749 0.922310 -0.561024
v -0.037749 1.017806 -0.408230
v -0.037749 1.046455 -0.264985
v -0.037749 0.947775 -0.128107
v -0.037749 0.790206 -0.015103
v -0.037749 0.666061 0.024687
v 0.048147 -0.599266 -0.548291
v 0.048147 -0.460797 -0.596039
v 0.048147 -0.645423 -0.460753
v 0.048147 -0.869839 -0.392314
v 0.048147 -1.116538 -0.237928
v 0.048147 -1.140413 -0.245886
v 0.048147 -0.266621 -0.597631
v 0.048147 0.167888 -0.615139
v 0.048147 -0.159983 -0.454386
v 0.048147 -0.511728 -0.309550
v 0.048147 -0.514911 -0.279310
v 0.048147 -0.166349 -0.155164
v 0.048147 0.059659 -0.042160
v 0.048147 -0.288903 -0.040569
v 0.048147 -0.350976 -0.050118
v 0.048147 -0.366892 -0.031019
v 0.048147 -0.027879 0.199764
v 0.048147 0.010319 0.198172
v 0.048147 0.046926 0.223638
v 0.048147 0.062842 0.234779
v 0.048146 0.116957 0.207722
v 0.048146 0.452786 0.215680
v 0.048146 0.619905 0.285711
v 0.048146 0.791798 0.406673
v 0.048146 0.812489 0.395532
v 0.048146 0.678794 0.242737
v 0.048146 0.562607 0.074027
v 0.048146 0.559424 -0.040569
v 0.048146 0.611947 -0.147206
v 0.048146 0.591256 -0.166306
v 0.048146 0.454378 -0.081950
v 0.048146 0.409812 -0.078767
v 0.048147 -0.026288 -0.263394
v 0.048146 0.524408 -0.497360
v 0.048146 0.667653 -0.471894
v 0.048146 0.787023 -0.392314
v 0.048146 0.807714 -0.408230
v 0.048146 0.694710 -0.580123
v 0.048146 0.678794 -0.796582
v 0.048146 0.771107 -0.962109
v 0.048146 0.954142 -0.912769
v 0.048146 1.116486 -0.818864
v 0.048146 1.313845 -0.640604
v 0.048146 1.321803 -0.678803
v 0.048146 1.133994 -0.930277
v 0.048146 0.892069 -1.148327
v 0.048146 0.629454 -1.291572
v 0.048147 0.511675 -1.299530
v 0.048147 0.385939 -1.262923
v 0.048147 0.409813 -1.296346
v 0.048147 0.455969 -1.328179
v 0.048147 0.554649 -1.358419
v 0.048147 0.549874 -1.382293
v 0.048147 0.377980 -1.396618
v 0.048147 0.156747 -1.366377
v 0.048147 -0.011963 -1.289980
v 0.048147 -0.099502 -1.205625
v 0.048147 -0.080402 -1.267698
v 0.048147 -0.008780 -1.350461
v 0.048147 -0.035837 -1.364786
v 0.048147 -0.222055 -1.235865
v 0.048147 -0.392357 -1.025773
v 0.048147 -0.448063 -0.933460
v 0.048147 -0.401907 -0.884120
v 0.048147 -0.233196 -1.006674
v 0.048147 -0.077219 -1.073522
v 0.048147 0.193354 -1.095804
v 0.048147 0.390713 -1.044873
v 0.048146 0.543507 -0.962109
v 0.048146 0.646962 -1.025773
v 0.048146 0.693118 -1.025773
v 0.048146 0.632638 -0.950968
v 0.048147 0.487801 -0.868204
v 0.048147 0.306358 -0.847513
v 0.048147 0.131281 -0.844330
v 0.048147 0.066026 -0.901628
v 0.048147 0.042151 -0.907995
v 0.048147 -0.037429 -0.850697
v 0.048147 -0.152024 -0.850697
v 0.048147 -0.360525 -0.841147
v 0.048147 -0.484670 -0.885712
v 0.048147 -0.497403 -1.094213
v 0.048147 -0.553109 -1.180159
v 0.048147 -0.666113 -1.232682
v 0.048147 -0.826866 -1.218358
v 0.048147 -0.962152 -1.135594
v 0.048147 -1.092664 -0.978025
v 0.048147 -1.181794 -0.782258
v 0.048147 -1.143595 -0.759975
v 0.048147 -1.008309 -0.939827
v 0.048147 -0.842782 -1.003491
v 0.048147 -0.739327 -0.919136
v 0.048147 -0.717045 -0.798174
v 0.048147 -0.802992 -0.645379
v 0.048147 -0.914404 -0.521234
v 0.048147 -1.138821 -0.250661
v 0.048147 -1.061712 0.175170
v 0.048147 -0.874079 0.352066
v 0.048147 -1.195656 0.105090
v 0.048147 -1.414938 0.049704
v 0.048147 -1.471454 0.046313
v 0.048147 -1.488974 0.031054
v 0.048147 -0.843560 0.364499
v 0.048147 -0.837343 0.357152
v 0.048147 -0.849212 0.329459
v 0.048147 -0.887643 0.242424
v 0.048147 -0.883686 0.185908
v 0.048147 -0.846951 0.120914
v 0.048147 -0.794956 0.080788
v 0.048147 -0.728267 0.053095
v 0.048147 -0.682489 0.037836
v 0.048147 -0.693792 0.024272
v 0.048147 -0.782523 -0.006247
v 0.048147 -0.835648 -0.043548
v 0.048147 -0.879730 -0.102890
v 0.048147 -0.889338 -0.179186
v 0.048147 -0.864471 -0.243050
v 0.048147 -0.835083 -0.291088
v 0.048147 -0.842430 -0.302392
v 0.048147 -0.865601 -0.288828
v 0.048147 -0.935681 -0.231181
v 0.048147 -0.988241 -0.184273
v 0.048147 -1.037410 -0.133973
v 0.048147 -1.118229 -0.076327
v 0.048147 -1.231261 -0.028853
v 0.048147 -1.325078 -0.003986
v 0.048147 -1.439805 0.018055
v 0.048147 -1.489540 0.030489
v 0.048147 -0.685107 1.283748
v 0.048147 -0.571225 1.239727
v 0.048147 -0.857364 1.247383
v 0.048147 -1.030578 1.108620
v 0.048147 -1.139675 0.923921
v 0.048147 -1.169341 0.844492
v 0.048147 -0.505193 1.151684
v 0.048147 -0.502322 1.042588
v 0.048147 -0.509978 0.981341
v 0.048147 -0.486054 0.937319
v 0.048147 -0.636300 0.850233
v 0.048147 -0.709988 0.884685
v 0.048147 -0.733913 0.997609
v 0.048147 -0.820999 1.065555
v 0.048147 -0.908084 1.063641
v 0.048147 -0.988471 1.019620
v 0.048147 -1.080342 0.938276
v 0.048147 -1.148288 0.838750
v 0.048147 -1.169341 0.843534
v 0.048147 -0.903250 0.858126
v 0.048147 -0.815744 0.787556
v 0.048147 -0.918775 0.852480
v 0.048147 -0.910306 0.681702
v 0.048147 -0.939946 0.598431
v 0.048147 -0.529232 0.773443
v 0.048147 -0.554637 0.838366
v 0.048147 -0.454429 0.896233
v 0.048147 -0.444549 0.982328
v 0.048147 -0.300588 1.212383
v 0.048146 -0.097349 1.405743
v 0.048146 -0.011254 1.428325
v 0.048146 -0.023957 1.390218
v 0.048146 -0.107228 1.273073
v 0.048146 0.058473 1.397425
v 0.048146 0.369698 1.480427
v 0.048146 0.554711 1.438205
v 0.048146 0.551889 1.412800
v 0.048146 0.438978 1.377515
v 0.048146 0.392402 1.329528
v 0.048146 0.595642 1.364813
v 0.048146 0.852514 1.230731
v 0.048146 1.064221 1.068422
v 0.048146 1.285809 0.787556
v 0.048146 1.321094 0.724044
v 0.048146 1.299923 0.712753
v 0.048146 1.109386 0.887765
v 0.048146 0.834165 1.024669
v 0.048146 0.671856 1.031726
v 0.048146 0.642217 0.987973
v 0.048146 0.666211 0.894822
v 0.048146 0.645040 0.877885
v 0.048146 0.516604 1.016201
v 0.048146 0.352883 1.117821
v 0.048146 0.121416 1.155928
v 0.048146 -0.145336 1.105118
v 0.048147 -0.318936 1.009144
v 0.048147 -0.320348 0.951277
v 0.048147 -0.355632 0.810138
v 0.048147 -0.334462 0.783322
v 0.048146 -0.035248 0.780499
v 0.048146 0.057904 0.832721
v 0.048146 0.112947 0.788968
v 0.048146 0.553300 0.786145
v 0.048146 0.729693 0.882840
v 0.048146 0.743837 0.858126
v 0.048146 0.582070 0.654317
v 0.048146 0.354294 0.443178
v 0.048146 0.338769 0.440356
v 0.048146 0.287959 0.478463
v 0.048147 -0.090292 0.227236
v 0.048147 -0.461486 -0.031047
v 0.048147 -0.618150 -0.152426
v 0.048147 -0.633675 -0.142547
v 0.048147 -0.532055 0.062104
v 0.048147 -0.523587 0.533507
v 0.048147 -0.725415 0.537741
v 0.048147 -0.811510 0.499634
v 0.048147 -1.124837 0.296394
v 0.048147 -1.144597 0.304862
v 0.048146 0.998707 0.519677
v 0.048146 0.925493 0.623131
v 0.048146 1.049638 0.378024
v 0.048146 1.016215 0.272978
v 0.048146 0.849096 0.105859
v 0.048146 0.662878 0.045378
v 0.048146 0.938226 0.634273
v 0.048146 1.118078 0.534001
v 0.048146 1.251772 0.366883
v 0.048146 1.275646 0.269795
v 0.048146 1.224715 0.288894
v 0.048146 1.186517 0.271386
v 0.048146 1.153093 0.198172
v 0.048146 1.197658 0.131325
v 0.048146 1.270872 0.171115
v 0.048146 1.352044 0.110634
v 0.048146 1.593968 0.032645
v 0.048146 1.388650 -0.023061
v 0.048146 1.282013 -0.093092
v 0.048146 1.272463 -0.101050
v 0.048146 1.242223 -0.072401
v 0.048146 1.196066 -0.069218
v 0.048146 1.157867 -0.109008
v 0.048146 1.170600 -0.179038
v 0.048146 1.216757 -0.225195
v 0.048146 1.261322 -0.194954
v 0.048146 1.289971 -0.206096
v 0.048146 1.234265 -0.330241
v 0.048146 1.132402 -0.451203
v 0.048146 0.939817 -0.568982
v 0.048146 0.922310 -0.561024
v 0.048146 1.017806 -0.408230
v 0.048146 1.046455 -0.264985
v 0.048146 0.947775 -0.128107
v 0.048146 0.790206 -0.015103
v 0.048146 0.666061 0.024687
v -0.131801 -1.538286 -2.392595
v -0.131801 -1.538286 2.476405
v -0.131801 1.642714 -2.392595
v -0.131801 1.642714 2.476405
v 0.142199 -1.538286 -2.392595
v 0.142199 -1.538286 2.476405
v 0.142199 1.642714 -2.392595
v 0.142199 1.642714 2.476405
vt 0.422242 0.178633
vt 0.364188 0.312824
vt 0.382679 0.251985
vt 0.424393 0.185105
vt 0.340536 0.325337
vt 0.327635 0.362876
vt 0.327205 0.415517
vt 0.322475 0.533312
vt 0.365908 0.444427
vt 0.405041 0.349069
vt 0.413212 0.348206
vt 0.446754 0.442701
vt 0.477287 0.503971
vt 0.477717 0.409476
vt 0.475137 0.392649
vt 0.480297 0.388334
vt 0.542652 0.480240
vt 0.542222 0.490595
vt 0.549102 0.500520
vt 0.552112 0.504834
vt 0.544802 0.519505
vt 0.546952 0.610548
vt 0.565874 0.655854
vt 0.598556 0.702454
vt 0.595546 0.708063
vt 0.554263 0.671819
vt 0.508679 0.640320
vt 0.477717 0.639458
vt 0.448905 0.653696
vt 0.443744 0.648087
vt 0.466536 0.610980
vt 0.467396 0.598898
vt 0.417512 0.480671
vt 0.354297 0.629965
vt 0.361178 0.668798
vt 0.382679 0.701159
vt 0.378379 0.706769
vt 0.331935 0.676133
vt 0.273451 0.671819
vt 0.228727 0.696845
vt 0.242058 0.746465
vt 0.267430 0.790477
vt 0.315594 0.843981
vt 0.305273 0.846138
vt 0.237328 0.795223
vt 0.178413 0.729637
vt 0.139710 0.658443
vt 0.137560 0.626513
vt 0.147451 0.592426
vt 0.138420 0.598898
vt 0.129820 0.611411
vt 0.121649 0.638163
vt 0.115199 0.636869
vt 0.111328 0.590268
vt 0.119499 0.530292
vt 0.140140 0.484555
vt 0.162932 0.460823
vt 0.146161 0.466001
vt 0.123799 0.485418
vt 0.119929 0.478083
vt 0.154762 0.427599
vt 0.211526 0.381430
vt 0.236468 0.366328
vt 0.249799 0.378841
vt 0.216686 0.424579
vt 0.198625 0.466864
vt 0.192605 0.540216
vt 0.206365 0.593720
vt 0.228727 0.635142
vt 0.211526 0.663189
vt 0.211526 0.675702
vt 0.231738 0.659306
vt 0.254099 0.620041
vt 0.259690 0.570851
vt 0.260550 0.523388
vt 0.245069 0.505698
vt 0.243348 0.499225
vt 0.258830 0.477651
vt 0.258830 0.446584
vt 0.261410 0.390060
vt 0.249369 0.356404
vt 0.193034 0.352952
vt 0.169813 0.337850
vt 0.155622 0.307215
vt 0.159492 0.263635
vt 0.181854 0.226959
vt 0.224427 0.191577
vt 0.277321 0.167414
vt 0.283342 0.177770
vt 0.234748 0.214446
vt 0.217546 0.259320
vt 0.240338 0.287367
vt 0.273021 0.293407
vt 0.314304 0.270107
vt 0.347847 0.239903
vt 0.420952 0.179064
vt 0.497068 0.084138
vt 0.517072 0.163656
vt 0.502107 0.104209
vt 0.501191 0.088887
vt 0.536007 0.199968
vt 0.583802 0.250836
vt 0.587161 0.259109
vt 0.585176 0.260795
vt 0.577694 0.257577
vt 0.554178 0.247158
vt 0.538908 0.248231
vt 0.521347 0.258190
vt 0.510506 0.272286
vt 0.503024 0.290365
vt 0.498901 0.302776
vt 0.495236 0.299711
vt 0.486990 0.275656
vt 0.476912 0.261254
vt 0.460878 0.249304
vt 0.440264 0.246699
vt 0.423009 0.253440
vt 0.410029 0.261407
vt 0.406975 0.259416
vt 0.410640 0.253134
vt 0.426216 0.234135
vt 0.438889 0.219886
vt 0.452480 0.206557
vt 0.468055 0.184647
vt 0.480882 0.154004
vt 0.487601 0.128570
vt 0.493556 0.097468
vt 0.496916 0.083984
vt 0.716850 0.170790
vt 0.825706 0.255367
vt 0.788214 0.208409
vt 0.738310 0.178833
vt 0.835532 0.302066
vt 0.823638 0.332939
vt 0.799849 0.350840
vt 0.770373 0.351619
vt 0.753825 0.349543
vt 0.741930 0.356029
vt 0.718401 0.315297
vt 0.727709 0.295321
vt 0.758220 0.288834
vt 0.776578 0.265226
vt 0.776061 0.241617
vt 0.764167 0.219824
vt 0.742189 0.194918
vt 0.715298 0.176498
vt 0.716591 0.170790
vt 0.571048 0.177499
vt 0.719008 0.238718
vt 0.672866 0.241014
vt 0.650367 0.232979
vt 0.720533 0.242927
vt 0.701466 0.266650
vt 0.697653 0.344323
vt 0.715195 0.337436
vt 0.730830 0.364602
vt 0.754091 0.367281
vt 0.816250 0.406309
vt 0.868493 0.461407
vt 0.874595 0.484747
vt 0.864298 0.481303
vt 0.832647 0.458728
vt 0.866246 0.503650
vt 0.888672 0.588023
vt 0.877264 0.638180
vt 0.870400 0.637415
vt 0.860866 0.606805
vt 0.847901 0.594178
vt 0.857434 0.649276
vt 0.821207 0.718914
vt 0.777353 0.776308
vt 0.701466 0.836380
vt 0.684306 0.845946
vt 0.681255 0.840206
vt 0.728542 0.788552
vt 0.765531 0.713940
vt 0.767438 0.669938
vt 0.755617 0.661903
vt 0.730448 0.668407
vt 0.725872 0.662668
vt 0.763243 0.627849
vt 0.790700 0.583464
vt 0.800996 0.520714
vt 0.787268 0.448397
vt 0.761337 0.401335
vt 0.745702 0.400952
vt 0.707568 0.391386
vt 0.700322 0.397125
vt 0.699560 0.478242
vt 0.713669 0.503496
vt 0.701848 0.518418
vt 0.701085 0.637797
vt 0.727211 0.685617
vt 0.720533 0.689452
vt 0.665467 0.645597
vt 0.608419 0.583847
vt 0.607657 0.579638
vt 0.617953 0.565863
vt 0.550074 0.463320
vt 0.480289 0.362689
vt 0.447494 0.320218
vt 0.450163 0.316009
vt 0.505458 0.343558
vt 0.632825 0.345854
vt 0.633969 0.291138
vt 0.623673 0.267798
vt 0.568760 0.182855
vt 0.571048 0.177498
vt 0.500938 0.667504
vt 0.590816 0.772354
vt 0.562433 0.763293
vt 0.517280 0.717987
vt 0.629089 0.758547
vt 0.657041 0.738699
vt 0.660051 0.742151
vt 0.632959 0.790908
vt 0.587805 0.827153
vt 0.561573 0.833625
vt 0.566734 0.819818
vt 0.562003 0.809462
vt 0.542222 0.800401
vt 0.524160 0.812482
vt 0.534911 0.832331
vt 0.518570 0.854336
vt 0.497498 0.919922
vt 0.482447 0.864260
vt 0.463526 0.835351
vt 0.461375 0.832762
vt 0.469116 0.824564
vt 0.469976 0.812051
vt 0.459225 0.801695
vt 0.440304 0.805147
vt 0.427833 0.817660
vt 0.436004 0.829742
vt 0.432993 0.837508
vt 0.399451 0.822407
vt 0.366768 0.794792
vt 0.334946 0.742582
vt 0.337096 0.737836
vt 0.378379 0.763725
vt 0.417082 0.771491
vt 0.454065 0.744739
vt 0.484597 0.702022
vt 0.495348 0.668367
vt 0.340536 0.325337
vt 0.327635 0.362876
vt 0.364188 0.312824
vt 0.382679 0.251985
vt 0.424393 0.185105
vt 0.422242 0.178633
vt 0.327205 0.415517
vt 0.322475 0.533312
vt 0.365908 0.444427
vt 0.405041 0.349069
vt 0.413212 0.348206
vt 0.446754 0.442701
vt 0.477287 0.503971
vt 0.477717 0.409476
vt 0.475137 0.392649
vt 0.480297 0.388334
vt 0.542652 0.480240
vt 0.542222 0.490595
vt 0.549102 0.500520
vt 0.552112 0.504834
vt 0.544802 0.519505
vt 0.546952 0.610548
vt 0.565874 0.655854
vt 0.598556 0.702454
vt 0.595546 0.708063
vt 0.554263 0.671819
vt 0.508679 0.640320
vt 0.477717 0.639458
vt 0.448905 0.653696
vt 0.443744 0.648087
vt 0.466536 0.610980
vt 0.467396 0.598898
vt 0.417512 0.480671
vt 0.354297 0.629965
vt 0.361178 0.668798
vt 0.382679 0.701159
vt 0.378379 0.706769
vt 0.331935 0.676133
vt 0.273451 0.671819
vt 0.228727 0.696845
vt 0.242058 0.746465
vt 0.267430 0.790477
vt 0.315594 0.843981
vt 0.305273 0.846138
vt 0.237328 0.795223
vt 0.178413 0.729637
vt 0.139710 0.658443
vt 0.137560 0.626513
vt 0.147451 0.592426
vt 0.138420 0.598898
vt 0.129820 0.611411
vt 0.121649 0.638163
vt 0.115199 0.636869
vt 0.111328 0.590268
vt 0.119499 0.530292
vt 0.140140 0.484555
vt 0.162932 0.460823
vt 0.146161 0.466001
vt 0.123799 0.485418
vt 0.119929 0.478083
vt 0.154762 0.427599
vt 0.211526 0.381430
vt 0.236468 0.366328
vt 0.249799 0.378841
vt 0.216686 0.424579
vt 0.198625 0.466864
vt 0.192605 0.540216
vt 0.206365 0.593720
vt 0.228727 0.635142
vt 0.211526 0.663189
vt 0.211526 0.675702
vt 0.231738 0.659306
vt 0.254099 0.620041
vt 0.259690 0.570851
vt 0.260550 0.523388
vt 0.245069 0.505698
vt 0.243348 0.499225
vt 0.258830 0.477651
vt 0.258830 0.446584
vt 0.261410 0.390060
vt 0.249369 0.356404
vt 0.193034 0.352952
vt 0.169813 0.337850
vt 0.155622 0.307215
vt 0.159492 0.263635
vt 0.181854 0.226959
vt 0.224427 0.191577
vt 0.277321 0.167414
vt 0.283342 0.177770
vt 0.234748 0.214446
vt 0.217546 0.259320
vt 0.240338 0.287367
vt 0.273021 0.293407
vt 0.314304 0.270107
vt 0.347847 0.239903
vt 0.420952 0.179064
vt 0.536007 0.199968
vt 0.583802 0.250836
vt 0.517072 0.163656
vt 0.502107 0.104209
vt 0.501191 0.088887
vt 0.497068 0.084138
vt 0.587161 0.259109
vt 0.585176 0.260795
vt 0.577694 0.257577
vt 0.554178 0.247158
vt 0.538908 0.248231
vt 0.521347 0.258190
vt 0.510506 0.272286
vt 0.503024 0.290365
vt 0.498901 0.302776
vt 0.495236 0.299711
vt 0.486990 0.275656
vt 0.476912 0.261254
vt 0.460878 0.249304
vt 0.440264 0.246699
vt 0.423009 0.253440
vt 0.410029 0.261407
vt 0.406975 0.259416
vt 0.410640 0.253134
vt 0.426216 0.234135
vt 0.438889 0.219886
vt 0.452480 0.206557
vt 0.468055 0.184647
vt 0.480882 0.154004
vt 0.487601 0.128570
vt 0.493556 0.097468
vt 0.496916 0.083984
vt 0.835532 0.302066
vt 0.823638 0.332939
vt 0.825706 0.255367
vt 0.788214 0.208409
vt 0.738310 0.178833
vt 0.716850 0.170790
vt 0.799849 0.350840
vt 0.770373 0.351619
vt 0.753825 0.349543
vt 0.741930 0.356029
vt 0.718401 0.315297
vt 0.727709 0.295321
vt 0.758220 0.288834
vt 0.776578 0.265226
vt 0.776061 0.241617
vt 0.764167 0.219824
vt 0.742189 0.194918
vt 0.715298 0.176498
vt 0.716591 0.170790
vt 0.720533 0.242927
vt 0.701466 0.266650
vt 0.719008 0.238718
vt 0.672866 0.241014
vt 0.650367 0.232979
vt 0.697653 0.344323
vt 0.715195 0.337436
vt 0.730830 0.364602
vt 0.754091 0.367281
vt 0.816250 0.406309
vt 0.868493 0.461407
vt 0.874595 0.484747
vt 0.864298 0.481303
vt 0.832647 0.458728
vt 0.866246 0.503650
vt 0.888672 0.588023
vt 0.877264 0.638180
vt 0.870400 0.637415
vt 0.860866 0.606805
vt 0.847901 0.594178
vt 0.857434 0.649276
vt 0.821207 0.718914
vt 0.777353 0.776308
vt 0.701466 0.836380
vt 0.684306 0.845946
vt 0.681255 0.840206
vt 0.728542 0.788552
vt 0.765531 0.713940
vt 0.767438 0.669938
vt 0.755617 0.661903
vt 0.730448 0.668407
vt 0.725872 0.662668
vt 0.763243 0.627849
vt 0.790700 0.583464
vt 0.800996 0.520714
vt 0.787268 0.448397
vt 0.761337 0.401335
vt 0.745702 0.400952
vt 0.707568 0.391386
vt 0.700322 0.397125
vt 0.699560 0.478242
vt 0.713669 0.503496
vt 0.701848 0.518418
vt 0.701085 0.637797
vt 0.727211 0.685617
vt 0.720533 0.689452
vt 0.665467 0.645597
vt 0.608419 0.583847
vt 0.607657 0.579638
vt 0.617953 0.565863
vt 0.550074 0.463320
vt 0.480289 0.362689
vt 0.447494 0.320218
vt 0.450163 0.316009
vt 0.505458 0.343558
vt 0.632825 0.345854
vt 0.633969 0.291138
vt 0.623673 0.267798
vt 0.568760 0.182855
vt 0.571048 0.177498
vt 0.629089 0.758547
vt 0.657041 0.738699
vt 0.590816 0.772354
vt 0.562433 0.763293
vt 0.517280 0.717987
vt 0.500938 0.667504
vt 0.660051 0.742151
vt 0.632959 0.790908
vt 0.587805 0.827153
vt 0.561573 0.833625
vt 0.566734 0.819818
vt 0.562003 0.809462
vt 0.542222 0.800401
vt 0.524160 0.812482
vt 0.534911 0.832331
vt 0.518570 0.854336
vt 0.497498 0.919922
vt 0.482447 0.864260
vt 0.463526 0.835351
vt 0.461375 0.832762
vt 0.469116 0.824564
vt 0.469976 0.812051
vt 0.459225 0.801695
vt 0.440304 0.805147
vt 0.427833 0.817660
vt 0.436004 0.829742
vt 0.432993 0.837508
vt 0.399451 0.822407
vt 0.366768 0.794792
vt 0.334946 0.742582
vt 0.337096 0.737836
vt 0.378379 0.763725
vt 0.417082 0.771491
vt 0.454065 0.744739
vt 0.484597 0.702022
vt 0.495348 0.668367
vn -1.000000 -0.000000 -0.000000
vn 1.000000 -0.000000 -0.000000
vn -0.000000 0.480300 -0.877100
vn -0.000000 0.873400 0.487100
vn -0.000000 0.662900 -0.748700
vn -0.000000 -0.260300 0.965500
vn -0.000000 0.825900 -0.563800
vn -0.000000 -0.500700 0.865600
vn -0.000000 -0.221600 -0.975100
vn -0.000000 -0.670300 0.742100
vn -0.000000 -1.000000 0.000100
vn -0.000000 0.979000 0.203900
vn -0.000000 0.627800 0.778400
vn -0.000000 0.801200 -0.598400
vn -0.000000 -0.341700 0.939800
vn -0.000000 0.669500 -0.742800
vn -0.000000 -0.998800 -0.049500
vn -0.000000 0.478900 -0.877900
vn -0.000000 -0.942100 0.335300
vn -0.000000 0.067400 -0.997700
vn -0.000000 -0.279500 -0.960100
vn -0.000000 0.049200 0.998800
vn -0.000000 0.813700 0.581200
vn -0.000000 -0.931200 -0.364400
vn -0.000000 0.567700 0.823200
vn -0.000000 -0.500100 0.866000
vn -0.000000 0.293000 0.956100
vn -0.000000 -0.993500 0.114000
vn -0.000000 0.980600 -0.196100
vn -0.000000 -0.847700 0.530500
vn -0.000000 0.083000 -0.996500
vn -0.000000 -0.689300 0.724500
vn -0.000000 -0.135400 -0.990800
vn -0.000000 -0.253700 0.967300
vn -0.000000 -0.412500 -0.911000
vn -0.000000 0.948700 -0.316200
vn -0.000000 -0.693900 -0.720100
vn -0.000000 0.815100 -0.579400
vn -0.000000 0.955800 0.294100
vn -0.000000 -0.600200 0.799800
vn -0.000000 0.756200 0.654400
vn -0.000000 -0.257700 0.966200
vn -0.000000 0.467900 -0.883800
vn -0.000000 0.222500 0.974900
vn -0.000000 -0.569200 -0.822200
vn -0.000000 0.993900 -0.110400
vn -0.000000 -0.776800 -0.629700
vn -0.000000 0.298300 -0.954500
vn -0.000000 -0.856200 -0.516700
vn -0.000000 0.717600 -0.696500
vn -0.000000 -0.730300 0.683200
vn -0.000000 -0.171100 0.985300
vn -0.000000 0.587700 0.809100
vn -0.000000 0.462700 0.886500
vn -0.000000 0.393900 0.919100
vn -0.000000 0.608400 0.793600
vn -0.000000 0.082100 0.996600
vn -0.000000 0.785100 0.619400
vn -0.000000 -0.249900 0.968300
vn -0.000000 0.874200 0.485600
vn -0.000000 -0.476300 0.879300
vn -0.000000 0.470600 -0.882400
vn -0.000000 0.524100 0.851700
vn -0.000000 -0.676500 -0.736500
vn -0.000000 -0.000000 1.000000
vn -0.000000 -0.445400 -0.895300
vn -0.000000 -0.777600 -0.628700
vn -0.000000 -0.043400 -0.999100
vn -0.000000 -0.496100 -0.868200
vn -0.000000 0.827900 -0.560900
vn -0.000000 -0.113300 -0.993600
vn -0.000000 0.968400 0.249400
vn -0.000000 -0.018200 -0.999800
vn -0.000000 0.624700 -0.780900
vn -0.000000 0.659800 -0.751400
vn -0.000000 -0.732800 -0.680500
vn -0.000000 0.257700 -0.966200
vn -0.000000 -0.527400 -0.849600
vn -0.000000 -0.584300 -0.811500
vn -0.000000 -0.162400 -0.986700
vn -0.000000 -0.000000 -1.000000
vn -0.000000 0.187100 -0.982300
vn -0.000000 -0.045800 -0.999000
vn -0.000000 0.483800 -0.875200
vn -0.000000 0.337900 -0.941200
vn -0.000000 0.999700 -0.024400
vn -0.000000 0.998100 -0.061000
vn -0.000000 0.970100 -0.242500
vn -0.000000 0.839200 -0.543900
vn -0.000000 0.784900 0.619600
vn -0.000000 0.421500 -0.906800
vn -0.000000 0.009400 1.000000
vn -0.000000 -0.088800 -0.996100
vn -0.000000 -0.489000 0.872300
vn -0.000000 -0.521900 -0.853000
vn -0.000000 0.622200 0.782800
vn -0.000000 -0.770100 -0.637900
vn -0.000000 0.006400 1.000000
vn -0.000000 -0.910100 -0.414400
vn -0.000000 -0.480700 0.876900
vn -0.000000 -0.503900 0.863800
vn -0.000000 0.867900 0.496700
vn -0.000000 0.799200 0.601100
vn -0.000000 0.783300 -0.621700
vn -0.000000 0.359000 0.933300
vn -0.000000 0.679800 -0.733400
vn -0.000000 -0.631900 0.775000
vn -0.000000 0.178900 -0.983900
vn -0.000000 -0.983500 0.181200
vn -0.000000 -0.600000 -0.800000
vn -0.000000 -0.871600 -0.490300
vn -0.000000 0.553300 -0.833000
vn -0.000000 -0.744200 -0.667900
vn -0.000000 0.571200 -0.820800
vn -0.000000 -0.769700 -0.638400
vn -0.000000 0.612500 -0.790500
vn -0.000000 -0.948700 -0.316300
vn -0.000000 -0.536900 -0.843700
vn -0.000000 -0.686000 0.727600
vn -0.000000 -0.895700 0.444700
vn -0.000000 -0.463600 0.886100
vn -0.000000 -0.999800 0.018000
vn -0.000000 -0.244900 0.969600
vn -0.000000 -0.021000 -0.999800
vn -0.000000 -0.059900 0.998200
vn -0.000000 0.404700 -0.914400
vn -0.000000 -0.656800 0.754100
vn -0.000000 0.544200 -0.839000
vn -0.000000 -0.377300 0.926100
vn -0.000000 -0.393900 -0.919100
vn -0.000000 0.763400 0.645900
vn -0.000000 -0.820300 0.571900
vn -0.000000 0.919100 -0.393900
vn -0.000000 -0.816300 -0.577700
vn -0.000000 0.914800 -0.403900
vn -0.000000 0.326000 0.945400
vn -0.000000 -0.941000 -0.338300
vn -0.000000 0.997600 0.069800
vn -0.000000 0.884600 0.466400
vn -0.000000 -0.952900 0.303200
vn -0.000000 0.870600 0.492100
vn -0.000000 0.291700 0.956500
vn -0.000000 -0.707100 0.707100
vn -0.000000 0.611000 0.791700
vn -0.000000 0.530500 0.847700
vn -0.000000 -0.308900 0.951100
vn -0.000000 0.383500 0.923500
vn -0.000000 -0.316200 0.948700
vn -0.000000 -0.658500 0.752600
vn -0.000000 0.316200 0.948700
vn -0.000000 0.008200 1.000000
vn -0.000000 0.487000 0.873400
vn -0.000000 0.768200 -0.640200
vn -0.000000 0.040300 0.999200
vn -0.000000 0.780900 0.624700
vn -0.000000 0.325200 -0.945600
vn -0.000000 -0.440200 -0.897900
vn -0.000000 0.971100 0.238800
vn -0.000000 0.574600 -0.818400
vn -0.000000 -0.380700 -0.924700
vn -0.000000 -0.351100 -0.936300
vn -0.000000 0.802700 -0.596300
vn -0.000000 -0.994500 -0.104700
vn -0.000000 0.416700 -0.909100
vn -0.000000 0.992200 -0.124900
vn -0.000000 -0.335500 0.942000
vn -0.000000 0.909700 -0.415300
vn -0.000000 0.931800 0.362800
vn -0.000000 -0.447200 0.894400
vn -0.000000 0.832100 0.554700
vn -0.000000 0.853000 0.521900
vn -0.000000 -0.004600 -1.000000
vn -0.000000 -0.477500 0.878600
vn -0.000000 0.838400 -0.545000
vn -0.000000 0.152100 -0.988400
vn -0.000000 0.597500 0.801900
vn -0.000000 -0.505200 -0.863000
vn -0.000000 -0.768200 -0.640200
vn -0.000000 0.306800 0.951800
vn -0.000000 -0.635300 -0.772300
vn -0.000000 -0.562700 0.826600
vn -0.000000 0.261900 -0.965100
vn -0.000000 -0.665900 -0.746100
vn -0.000000 0.041600 0.999100
vn -0.000000 0.548900 -0.835900
vn -0.000000 -0.715100 -0.699000
vn -0.000000 -0.571100 0.820900
vn -0.000000 0.640200 -0.768200
vn -0.000000 -0.580700 -0.814100
vn -0.000000 -0.573500 0.819200
vn -0.000000 -0.687700 -0.725900
vn -0.000000 -0.387200 -0.922000
vn -0.000000 0.447200 0.894400
vn -0.000000 -0.068800 -0.997600
vn -0.000000 -0.256200 -0.966600
vn -0.000000 -0.023700 0.999700
vn -0.000000 0.721400 -0.692500
vn -0.000000 -0.188700 -0.982000
vn -0.000000 -0.386500 0.922300
vn -0.000000 0.983900 0.178900
vn -0.000000 -0.242500 -0.970100
vn -0.000000 -0.575500 0.817800
vn -0.000000 0.707100 0.707100
vn -0.000000 -0.707100 0.707200
vn -0.000000 0.474100 0.880500
vn -0.000000 -0.561500 0.827500
vn -0.000000 0.360600 0.932700
vn -0.000000 0.752600 -0.658500
vn -0.000000 0.362400 0.932000
vn -0.000000 -0.206600 0.978400
vn -0.000000 0.823600 -0.567200
vn -0.000000 0.912400 -0.409400
vn -0.000000 -0.625200 0.780400
vn -0.000000 0.999600 -0.027800
vn -0.000000 0.764900 -0.644100
vn -0.000000 -0.861000 0.508600
vn -0.000000 0.897100 0.441800
vn -0.000000 0.521700 -0.853100
vn -0.000000 -0.936800 0.349900
vn -0.000000 0.678300 -0.734800
vn -0.000000 -0.413800 -0.910400
vn -0.000000 0.800000 0.600000
vn -0.000000 -0.524700 -0.851300
vn -0.000000 -0.848000 0.530000
vn -0.000000 0.999700 0.026300
vn -0.000000 -0.071200 -0.997500
vn -0.000000 -0.980600 0.196100
vn -0.000000 0.992300 -0.124000
vn -0.000000 0.389900 -0.920900
vn -0.000000 -0.811200 -0.584800
vn -0.000000 0.878600 0.477500
vn -0.000000 0.391000 0.920400
vn -0.000000 -0.582800 -0.812600
vn -0.000000 0.501500 -0.865200
vn -0.000000 -0.175000 0.984600
vn -0.000000 -0.305200 -0.952300
vn -0.000000 -0.423500 -0.905900
vn -0.000000 -0.554700 0.832100
vn -0.000000 -0.988400 -0.152000
vn -0.000000 -0.978300 -0.207300
vn -0.000000 0.609700 0.792600
vn -0.000000 -0.615100 -0.788400
vn -0.000000 0.835600 -0.549300
vn -0.000000 0.022000 -0.999800
vn -0.000000 0.997300 -0.073300
vn -0.000000 0.979000 0.204000
vn -0.000000 0.827900 -0.560800
vn -0.000000 0.931900 0.362800
vn -0.000000 0.832000 0.554700
vn -0.000000 -0.687700 -0.726000
vn -0.000000 0.897100 0.441900
vn -0.000000 -0.524600 -0.851300
vn -0.000000 -0.988400 -0.152100
f 51/51/1 53/53/1 54/54/1
f 117/117/1 118/118/1 120/120/1
f 143/143/1 144/144/1 131/131/1
f 168/168/1 182/182/1 183/183/1
f 231/231/1 241/241/1 242/242/1
f 285/285/2 284/284/2 290/290/2
f 357/357/2 356/356/2 354/354/2
f 375/375/2 387/387/2 386/386/2
f 405/405/2 427/427/2 426/426/2
f 476/476/2 475/475/2 484/484/2
f 144/144/3 387/387/3 388/388/3
f 39/39/4 284/284/4 40/40/4
f 144/144/5 389/389/5 145/145/5
f 40/40/6 285/285/6 41/41/6
f 145/145/7 390/390/7 146/146/7
f 41/41/8 286/286/8 42/42/8
f 146/146/9 391/391/9 147/147/9
f 42/42/10 287/287/10 43/43/10
f 147/147/11 378/378/11 129/129/11
f 43/43/12 288/288/12 44/44/12
f 152/152/13 393/393/13 153/153/13
f 45/45/14 288/288/14 289/289/14
f 149/149/15 392/392/15 152/152/15
f 45/45/16 290/290/16 46/46/16
f 150/150/17 394/394/17 149/149/17
f 46/46/18 291/291/18 47/47/18
f 151/151/19 395/395/19 150/150/19
f 47/47/20 292/292/20 48/48/20
f 49/49/21 292/292/21 293/293/21
f 153/153/22 397/397/22 154/154/22
f 49/49/23 294/294/23 50/50/23
f 154/154/24 398/398/24 155/155/24
f 50/50/25 295/295/25 51/51/25
f 155/155/26 399/399/26 156/156/26
f 52/52/27 295/295/27 296/296/27
f 156/156/28 400/400/28 157/157/28
f 52/52/29 297/297/29 53/53/29
f 157/157/30 401/401/30 158/158/30
f 53/53/31 298/298/31 54/54/31
f 158/158/32 402/402/32 159/159/32
f 55/55/33 298/298/33 299/299/33
f 159/159/34 403/403/34 160/160/34
f 55/55/35 300/300/35 56/56/35
f 161/161/36 403/403/36 404/404/36
f 56/56/37 301/301/37 57/57/37
f 162/162/38 404/404/38 405/405/38
f 57/57/39 302/302/39 58/58/39
f 162/162/40 406/406/40 163/163/40
f 58/58/41 303/303/41 59/59/41
f 163/163/42 407/407/42 164/164/42
f 59/59/43 304/304/43 60/60/43
f 164/164/44 408/408/44 165/165/44
f 61/61/45 304/304/45 305/305/45
f 165/165/46 409/409/46 166/166/46
f 61/61/47 306/306/47 62/62/47
f 166/166/48 410/410/48 167/167/48
f 62/62/49 307/307/49 63/63/49
f 168/168/50 410/410/50 411/411/50
f 63/63/51 308/308/51 64/64/51
f 168/168/52 412/412/52 169/169/52
f 65/65/53 308/308/53 309/309/53
f 169/169/54 413/413/54 170/170/54
f 65/65/55 310/310/55 66/66/55
f 170/170/56 414/414/56 171/171/56
f 66/66/57 311/311/57 67/67/57
f 171/171/58 415/415/58 172/172/58
f 67/67/59 312/312/59 68/68/59
f 172/172/60 416/416/60 173/173/60
f 68/68/61 313/313/61 69/69/61
f 174/174/62 416/416/62 417/417/62
f 69/69/63 314/314/63 70/70/63
f 174/174/64 418/418/64 175/175/64
f 70/70/65 315/315/65 71/71/65
f 176/176/66 418/418/66 419/419/66
f 72/72/67 315/315/67 316/316/67
f 177/177/68 419/419/68 420/420/68
f 72/72/69 317/317/69 73/73/69
f 178/178/70 420/420/70 421/421/70
f 73/73/71 318/318/71 74/74/71
f 178/178/72 422/422/72 179/179/72
f 74/74/73 319/319/73 75/75/73
f 179/179/74 423/423/74 180/180/74
f 75/75/75 320/320/75 76/76/75
f 180/180/76 424/424/76 181/181/76
f 77/77/77 320/320/77 321/321/77
f 181/181/78 425/425/78 182/182/78
f 77/77/79 322/322/79 78/78/79
f 183/183/80 425/425/80 426/426/80
f 79/79/81 322/322/81 323/323/81
f 184/184/82 426/426/82 427/427/82
f 80/80/83 323/323/83 324/324/83
f 185/185/84 427/427/84 428/428/84
f 81/81/85 324/324/85 325/325/85
f 185/185/86 429/429/86 186/186/86
f 81/81/87 326/326/87 82/82/87
f 186/186/88 430/430/88 187/187/88
f 82/82/89 327/327/89 83/83/89
f 187/187/90 431/431/90 188/188/90
f 83/83/91 328/328/91 84/84/91
f 188/188/92 432/432/92 189/189/92
f 85/85/93 328/328/93 329/329/93
f 189/189/94 433/433/94 190/190/94
f 86/86/95 329/329/95 330/330/95
f 191/191/96 433/433/96 434/434/96
f 86/86/97 331/331/97 87/87/97
f 191/191/98 435/435/98 192/192/98
f 88/88/99 331/331/99 332/332/99
f 192/192/100 436/436/100 193/193/100
f 89/89/101 332/332/101 333/333/101
f 193/193/102 437/437/102 194/194/102
f 89/89/103 334/334/103 90/90/103
f 195/195/104 437/437/104 438/438/104
f 90/90/105 335/335/105 91/91/105
f 196/196/106 438/438/106 439/439/106
f 91/91/107 336/336/107 92/92/107
f 196/196/108 440/440/108 197/197/108
f 92/92/109 337/337/109 93/93/109
f 197/197/110 441/441/110 198/198/110
f 93/93/111 338/338/111 94/94/111
f 199/199/112 441/441/112 442/442/112
f 94/94/113 339/339/113 95/95/113
f 200/200/114 442/442/114 443/443/114
f 95/95/115 340/340/115 96/96/115
f 200/200/116 444/444/116 201/201/116
f 96/96/117 250/250/117 1/1/117
f 201/201/118 445/445/118 202/202/118
f 102/102/119 341/341/119 342/342/119
f 202/202/120 446/446/120 203/203/120
f 98/98/121 341/341/121 101/101/121
f 203/203/122 447/447/122 204/204/122
f 99/99/123 343/343/123 98/98/123
f 205/205/124 447/447/124 448/448/124
f 99/99/125 345/345/125 344/344/125
f 205/205/126 449/449/126 206/206/126
f 100/100/127 346/346/127 345/345/127
f 207/207/128 449/449/128 450/450/128
f 102/102/129 347/347/129 103/103/129
f 207/207/130 451/451/130 208/208/130
f 103/103/131 348/348/131 104/104/131
f 208/208/132 396/396/132 151/151/132
f 104/104/133 349/349/133 105/105/133
f 213/213/134 453/453/134 214/214/134
f 105/105/135 350/350/135 106/106/135
f 6/6/136 245/245/136 246/246/136
f 210/210/137 452/452/137 213/213/137
f 106/106/138 351/351/138 107/107/138
f 2/2/139 245/245/139 5/5/139
f 211/211/140 454/454/140 210/210/140
f 108/108/141 351/351/141 352/352/141
f 3/3/142 247/247/142 2/2/142
f 212/212/143 455/455/143 211/211/143
f 109/109/144 352/352/144 353/353/144
f 3/3/145 249/249/145 248/248/145
f 209/209/146 456/456/146 212/212/146
f 109/109/147 354/354/147 110/110/147
f 4/4/148 250/250/148 249/249/148
f 214/214/149 458/458/149 215/215/149
f 110/110/150 355/355/150 111/111/150
f 6/6/151 251/251/151 7/7/151
f 215/215/152 459/459/152 216/216/152
f 111/111/153 356/356/153 112/112/153
f 8/8/154 251/251/154 252/252/154
f 216/216/155 460/460/155 217/217/155
f 112/112/156 357/357/156 113/113/156
f 8/8/157 253/253/157 9/9/157
f 217/217/158 461/461/158 218/218/158
f 113/113/159 358/358/159 114/114/159
f 10/10/160 253/253/160 254/254/160
f 218/218/161 462/462/161 219/219/161
f 114/114/162 359/359/162 115/115/162
f 10/10/163 255/255/163 11/11/163
f 219/219/164 463/463/164 220/220/164
f 115/115/165 360/360/165 116/116/165
f 11/11/166 256/256/166 12/12/166
f 220/220/167 464/464/167 221/221/167
f 117/117/168 360/360/168 361/361/168
f 12/12/169 257/257/169 13/13/169
f 221/221/170 465/465/170 222/222/170
f 118/118/171 361/361/171 362/362/171
f 14/14/172 257/257/172 258/258/172
f 222/222/173 466/466/173 223/223/173
f 119/119/174 362/362/174 363/363/174
f 14/14/175 259/259/175 15/15/175
f 223/223/176 467/467/176 224/224/176
f 119/119/177 364/364/177 120/120/177
f 15/15/178 260/260/178 16/16/178
f 225/225/179 467/467/179 468/468/179
f 120/120/180 365/365/180 121/121/180
f 16/16/181 261/261/181 17/17/181
f 225/225/182 469/469/182 226/226/182
f 121/121/183 366/366/183 122/122/183
f 17/17/184 262/262/184 18/18/184
f 227/227/185 469/469/185 470/470/185
f 122/122/186 367/367/186 123/123/186
f 18/18/187 263/263/187 19/19/187
f 228/228/188 470/470/188 471/471/188
f 123/123/189 368/368/189 124/124/189
f 19/19/190 264/264/190 20/20/190
f 228/228/191 472/472/191 229/229/191
f 124/124/192 369/369/192 125/125/192
f 20/20/193 265/265/193 21/21/193
f 229/229/194 473/473/194 230/230/194
f 125/125/195 370/370/195 126/126/195
f 21/21/196 266/266/196 22/22/196
f 231/231/197 473/473/197 474/474/197
f 126/126/198 371/371/198 127/127/198
f 22/22/199 267/267/199 23/23/199
f 231/231/200 475/475/200 232/232/200
f 127/127/201 372/372/201 128/128/201
f 23/23/202 268/268/202 24/24/202
f 232/232/203 476/476/203 233/233/203
f 128/128/204 346/346/204 97/97/204
f 24/24/205 269/269/205 25/25/205
f 233/233/206 477/477/206 234/234/206
f 133/133/207 374/374/207 134/134/207
f 25/25/208 270/270/208 26/26/208
f 234/234/209 478/478/209 235/235/209
f 130/130/210 373/373/210 133/133/210
f 27/27/211 270/270/211 271/271/211
f 235/235/212 479/479/212 236/236/212
f 131/131/213 375/375/213 130/130/213
f 27/27/214 272/272/214 28/28/214
f 237/237/215 479/479/215 480/480/215
f 132/132/216 376/376/216 131/131/216
f 28/28/217 273/273/217 29/29/217
f 237/237/218 481/481/218 238/238/218
f 129/129/219 377/377/219 132/132/219
f 29/29/220 274/274/220 30/30/220
f 238/238/221 482/482/221 239/239/221
f 134/134/222 379/379/222 135/135/222
f 30/30/223 275/275/223 31/31/223
f 239/239/224 483/483/224 240/240/224
f 135/135/225 380/380/225 136/136/225
f 32/32/226 275/275/226 276/276/226
f 240/240/227 484/484/227 241/241/227
f 136/136/228 381/381/228 137/137/228
f 32/32/229 277/277/229 33/33/229
f 241/241/230 485/485/230 242/242/230
f 138/138/231 381/381/231 382/382/231
f 33/33/232 278/278/232 34/34/232
f 242/242/233 486/486/233 243/243/233
f 138/138/234 383/383/234 139/139/234
f 34/34/235 279/279/235 35/35/235
f 243/243/236 487/487/236 244/244/236
f 140/140/237 383/383/237 384/384/237
f 35/35/238 280/280/238 36/36/238
f 244/244/239 457/457/239 209/209/239
f 140/140/240 385/385/240 141/141/240
f 37/37/241 280/280/241 281/281/241
f 141/141/242 386/386/242 142/142/242
f 38/38/243 281/281/243 282/282/243
f 142/142/244 387/387/244 143/143/244
f 38/38/245 283/283/245 39/39/245
f 6/6/1 7/7/1 80/80/1
f 7/7/1 8/8/1 78/78/1
f 6/6/1 80/80/1 81/81/1
f 9/9/1 10/10/1 12/12/1
f 10/10/1 11/11/1 12/12/1
f 8/8/1 9/9/1 33/33/1
f 9/9/1 12/12/1 33/33/1
f 14/14/1 15/15/1 16/16/1
f 16/16/1 17/17/1 14/14/1
f 17/17/1 18/18/1 13/13/1
f 14/14/1 17/17/1 13/13/1
f 19/19/1 20/20/1 21/21/1
f 18/18/1 19/19/1 21/21/1
f 18/18/1 21/21/1 13/13/1
f 21/21/1 22/22/1 32/32/1
f 13/13/1 21/21/1 32/32/1
f 3/3/1 2/2/1 95/95/1
f 2/2/1 5/5/1 94/94/1
f 1/1/1 4/4/1 96/96/1
f 4/4/1 3/3/1 96/96/1
f 95/95/1 96/96/1 3/3/1
f 94/94/1 95/95/1 2/2/1
f 93/93/1 94/94/1 5/5/1
f 93/93/1 5/5/1 6/6/1
f 92/92/1 93/93/1 81/81/1
f 93/93/1 6/6/1 81/81/1
f 80/80/1 7/7/1 79/79/1
f 91/91/1 92/92/1 84/84/1
f 23/23/1 24/24/1 26/26/1
f 24/24/1 25/25/1 26/26/1
f 22/22/1 23/23/1 27/27/1
f 88/88/1 89/89/1 87/87/1
f 89/89/1 90/90/1 87/87/1
f 86/86/1 87/87/1 90/90/1
f 84/84/1 85/85/1 91/91/1
f 85/85/1 86/86/1 91/91/1
f 82/82/1 83/83/1 92/92/1
f 83/83/1 84/84/1 92/92/1
f 81/81/1 82/82/1 92/92/1
f 86/86/1 90/90/1 91/91/1
f 78/78/1 79/79/1 7/7/1
f 76/76/1 77/77/1 78/78/1
f 22/22/1 27/27/1 32/32/1
f 23/23/1 26/26/1 27/27/1
f 76/76/1 78/78/1 75/75/1
f 78/78/1 8/8/1 75/75/1
f 12/12/1 13/13/1 33/33/1
f 74/74/1 75/75/1 8/8/1
f 13/13/1 32/32/1 33/33/1
f 27/27/1 28/28/1 31/31/1
f 32/32/1 27/27/1 31/31/1
f 28/28/1 29/29/1 30/30/1
f 28/28/1 30/30/1 31/31/1
f 73/73/1 74/74/1 34/34/1
f 74/74/1 8/8/1 34/34/1
f 72/72/1 73/73/1 39/39/1
f 73/73/1 34/34/1 39/39/1
f 8/8/1 33/33/1 34/34/1
f 35/35/1 36/36/1 37/37/1
f 34/34/1 35/35/1 38/38/1
f 39/39/1 34/34/1 38/38/1
f 35/35/1 37/37/1 38/38/1
f 68/68/1 69/69/1 70/70/1
f 67/67/1 68/68/1 49/49/1
f 68/68/1 70/70/1 48/48/1
f 49/49/1 68/68/1 48/48/1
f 70/70/1 71/71/1 47/47/1
f 72/72/1 39/39/1 40/40/1
f 71/71/1 72/72/1 40/40/1
f 71/71/1 40/40/1 46/46/1
f 40/40/1 41/41/1 46/46/1
f 42/42/1 43/43/1 44/44/1
f 44/44/1 45/45/1 42/42/1
f 45/45/1 46/46/1 41/41/1
f 42/42/1 45/45/1 41/41/1
f 46/46/1 47/47/1 71/71/1
f 47/47/1 48/48/1 70/70/1
f 66/66/1 67/67/1 56/56/1
f 67/67/1 49/49/1 55/55/1
f 67/67/1 55/55/1 56/56/1
f 49/49/1 50/50/1 54/54/1
f 55/55/1 49/49/1 54/54/1
f 63/63/1 64/64/1 62/62/1
f 64/64/1 65/65/1 62/62/1
f 65/65/1 66/66/1 61/61/1
f 57/57/1 66/66/1 56/56/1
f 51/51/1 52/52/1 53/53/1
f 66/66/1 57/57/1 61/61/1
f 50/50/1 51/51/1 54/54/1
f 60/60/1 61/61/1 58/58/1
f 61/61/1 62/62/1 65/65/1
f 58/58/1 61/61/1 57/57/1
f 58/58/1 59/59/1 60/60/1
f 101/101/1 102/102/1 106/106/1
f 102/102/1 103/103/1 104/104/1
f 106/106/1 102/102/1 105/105/1
f 104/104/1 105/105/1 102/102/1
f 101/101/1 106/106/1 107/107/1
f 98/98/1 101/101/1 124/124/1
f 101/101/1 107/107/1 108/108/1
f 101/101/1 108/108/1 114/114/1
f 97/97/1 100/100/1 127/127/1
f 100/100/1 99/99/1 127/127/1
f 99/99/1 98/98/1 126/126/1
f 101/101/1 114/114/1 124/124/1
f 114/114/1 108/108/1 109/109/1
f 126/126/1 98/98/1 125/125/1
f 128/128/1 97/97/1 127/127/1
f 126/126/1 127/127/1 99/99/1
f 109/109/1 110/110/1 113/113/1
f 110/110/1 111/111/1 112/112/1
f 110/110/1 112/112/1 113/113/1
f 125/125/1 98/98/1 124/124/1
f 114/114/1 109/109/1 113/113/1
f 124/124/1 114/114/1 123/123/1
f 114/114/1 115/115/1 123/123/1
f 121/121/1 122/122/1 116/116/1
f 122/122/1 123/123/1 115/115/1
f 116/116/1 122/122/1 115/115/1
f 120/120/1 121/121/1 117/117/1
f 117/117/1 121/121/1 116/116/1
f 118/118/1 119/119/1 120/120/1
f 130/130/1 133/133/1 142/142/1
f 133/133/1 134/134/1 141/141/1
f 142/142/1 133/133/1 141/141/1
f 134/134/1 135/135/1 141/141/1
f 135/135/1 136/136/1 141/141/1
f 137/137/1 138/138/1 139/139/1
f 136/136/1 137/137/1 141/141/1
f 131/131/1 130/130/1 143/143/1
f 143/143/1 130/130/1 142/142/1
f 129/129/1 132/132/1 146/146/1
f 132/132/1 131/131/1 145/145/1
f 146/146/1 147/147/1 129/129/1
f 145/145/1 146/146/1 132/132/1
f 137/137/1 139/139/1 141/141/1
f 139/139/1 140/140/1 141/141/1
f 144/144/1 145/145/1 131/131/1
f 149/149/1 152/152/1 153/153/1
f 154/154/1 155/155/1 156/156/1
f 150/150/1 149/149/1 153/153/1
f 150/150/1 153/153/1 205/205/1
f 153/153/1 154/154/1 205/205/1
f 207/207/1 208/208/1 151/151/1
f 151/151/1 150/150/1 206/206/1
f 206/206/1 150/150/1 205/205/1
f 156/156/1 157/157/1 186/186/1
f 157/157/1 158/158/1 185/185/1
f 207/207/1 151/151/1 206/206/1
f 157/157/1 185/185/1 186/186/1
f 158/158/1 159/159/1 162/162/1
f 154/154/1 156/156/1 187/187/1
f 158/158/1 162/162/1 184/184/1
f 185/185/1 158/158/1 184/184/1
f 159/159/1 160/160/1 161/161/1
f 162/162/1 163/163/1 183/183/1
f 163/163/1 164/164/1 168/168/1
f 159/159/1 161/161/1 162/162/1
f 163/163/1 168/168/1 183/183/1
f 164/164/1 165/165/1 167/167/1
f 165/165/1 166/166/1 167/167/1
f 168/168/1 169/169/1 181/181/1
f 169/169/1 170/170/1 177/177/1
f 164/164/1 167/167/1 168/168/1
f 169/169/1 177/177/1 181/181/1
f 170/170/1 171/171/1 176/176/1
f 177/177/1 170/170/1 176/176/1
f 205/205/1 154/154/1 204/204/1
f 187/187/1 156/156/1 186/186/1
f 171/171/1 172/172/1 175/175/1
f 172/172/1 173/173/1 174/174/1
f 175/175/1 172/172/1 174/174/1
f 201/201/1 202/202/1 200/200/1
f 202/202/1 203/203/1 200/200/1
f 200/200/1 203/203/1 199/199/1
f 203/203/1 204/204/1 199/199/1
f 171/171/1 175/175/1 176/176/1
f 198/198/1 199/199/1 189/189/1
f 199/199/1 204/204/1 188/188/1
f 196/196/1 197/197/1 198/198/1
f 194/194/1 195/195/1 192/192/1
f 195/195/1 196/196/1 198/198/1
f 192/192/1 195/195/1 198/198/1
f 192/192/1 193/193/1 194/194/1
f 189/189/1 190/190/1 191/191/1
f 189/189/1 191/191/1 198/198/1
f 191/191/1 192/192/1 198/198/1
f 188/188/1 189/189/1 199/199/1
f 187/187/1 188/188/1 154/154/1
f 188/188/1 204/204/1 154/154/1
f 182/182/1 168/168/1 181/181/1
f 178/178/1 179/179/1 180/180/1
f 178/178/1 180/180/1 181/181/1
f 178/178/1 181/181/1 177/177/1
f 183/183/1 184/184/1 162/162/1
f 213/213/1 214/214/1 215/215/1
f 215/215/1 216/216/1 213/213/1
f 216/216/1 217/217/1 210/210/1
f 213/213/1 216/216/1 210/210/1
f 217/217/1 218/218/1 219/219/1
f 217/217/1 219/219/1 220/220/1
f 210/210/1 217/217/1 220/220/1
f 211/211/1 210/210/1 220/220/1
f 211/211/1 220/220/1 221/221/1
f 244/244/1 209/209/1 243/243/1
f 209/209/1 212/212/1 243/243/1
f 212/212/1 211/211/1 221/221/1
f 222/222/1 223/223/1 224/224/1
f 212/212/1 221/221/1 222/222/1
f 242/242/1 243/243/1 212/212/1
f 212/212/1 222/222/1 242/242/1
f 222/222/1 224/224/1 229/229/1
f 242/242/1 222/222/1 231/231/1
f 224/224/1 225/225/1 226/226/1
f 227/227/1 228/228/1 229/229/1
f 224/224/1 226/226/1 229/229/1
f 226/226/1 227/227/1 229/229/1
f 231/231/1 222/222/1 230/230/1
f 229/229/1 230/230/1 222/222/1
f 238/238/1 239/239/1 240/240/1
f 236/236/1 237/237/1 241/241/1
f 237/237/1 238/238/1 240/240/1
f 234/234/1 235/235/1 233/233/1
f 235/235/1 236/236/1 233/233/1
f 237/237/1 240/240/1 241/241/1
f 232/232/1 233/233/1 241/241/1
f 233/233/1 236/236/1 241/241/1
f 231/231/1 232/232/1 241/241/1
f 245/245/2 247/247/2 338/338/2
f 247/247/2 248/248/2 339/339/2
f 338/338/2 247/247/2 339/339/2
f 248/248/2 249/249/2 340/340/2
f 249/249/2 250/250/2 340/340/2
f 340/340/2 339/339/2 248/248/2
f 252/252/2 251/251/2 322/322/2
f 251/251/2 246/246/2 324/324/2
f 324/324/2 246/246/2 325/325/2
f 246/246/2 245/245/2 337/337/2
f 245/245/2 338/338/2 337/337/2
f 246/246/2 337/337/2 325/325/2
f 251/251/2 324/324/2 323/323/2
f 337/337/2 336/336/2 325/325/2
f 255/255/2 254/254/2 256/256/2
f 254/254/2 253/253/2 256/256/2
f 336/336/2 335/335/2 328/328/2
f 253/253/2 252/252/2 277/277/2
f 256/256/2 253/253/2 277/277/2
f 260/260/2 259/259/2 258/258/2
f 262/262/2 261/261/2 257/257/2
f 261/261/2 260/260/2 258/258/2
f 265/265/2 264/264/2 263/263/2
f 261/261/2 258/258/2 257/257/2
f 265/265/2 263/263/2 262/262/2
f 266/266/2 265/265/2 276/276/2
f 265/265/2 262/262/2 257/257/2
f 334/334/2 333/333/2 331/331/2
f 333/333/2 332/332/2 331/331/2
f 331/331/2 330/330/2 334/334/2
f 330/330/2 329/329/2 335/335/2
f 329/329/2 328/328/2 335/335/2
f 328/328/2 327/327/2 336/336/2
f 327/327/2 326/326/2 336/336/2
f 326/326/2 325/325/2 336/336/2
f 335/335/2 334/334/2 330/330/2
f 323/323/2 322/322/2 251/251/2
f 322/322/2 321/321/2 320/320/2
f 265/265/2 257/257/2 276/276/2
f 269/269/2 268/268/2 270/270/2
f 268/268/2 267/267/2 270/270/2
f 267/267/2 266/266/2 271/271/2
f 271/271/2 266/266/2 276/276/2
f 252/252/2 322/322/2 319/319/2
f 322/322/2 320/320/2 319/319/2
f 270/270/2 267/267/2 271/271/2
f 252/252/2 319/319/2 318/318/2
f 252/252/2 318/318/2 278/278/2
f 318/318/2 317/317/2 278/278/2
f 257/257/2 256/256/2 277/277/2
f 276/276/2 257/257/2 277/277/2
f 277/277/2 252/252/2 278/278/2
f 317/317/2 316/316/2 283/283/2
f 272/272/2 271/271/2 275/275/2
f 274/274/2 273/273/2 272/272/2
f 275/275/2 274/274/2 272/272/2
f 314/314/2 313/313/2 312/312/2
f 314/314/2 312/312/2 292/292/2
f 312/312/2 311/311/2 293/293/2
f 315/315/2 314/314/2 291/291/2
f 312/312/2 293/293/2 292/292/2
f 276/276/2 275/275/2 271/271/2
f 278/278/2 317/317/2 283/283/2
f 281/281/2 280/280/2 279/279/2
f 279/279/2 278/278/2 282/282/2
f 282/282/2 281/281/2 279/279/2
f 283/283/2 282/282/2 278/278/2
f 309/309/2 308/308/2 306/306/2
f 308/308/2 307/307/2 306/306/2
f 306/306/2 305/305/2 309/309/2
f 305/305/2 304/304/2 302/302/2
f 304/304/2 303/303/2 302/302/2
f 310/310/2 309/309/2 305/305/2
f 305/305/2 302/302/2 301/301/2
f 301/301/2 300/300/2 310/310/2
f 300/300/2 299/299/2 311/311/2
f 299/299/2 298/298/2 293/293/2
f 298/298/2 297/297/2 295/295/2
f 297/297/2 296/296/2 295/295/2
f 298/298/2 295/295/2 294/294/2
f 310/310/2 305/305/2 301/301/2
f 300/300/2 311/311/2 310/310/2
f 298/298/2 294/294/2 293/293/2
f 293/293/2 311/311/2 299/299/2
f 292/292/2 291/291/2 314/314/2
f 291/291/2 290/290/2 315/315/2
f 290/290/2 289/289/2 285/285/2
f 315/315/2 290/290/2 284/284/2
f 289/289/2 288/288/2 286/286/2
f 288/288/2 287/287/2 286/286/2
f 284/284/2 283/283/2 316/316/2
f 284/284/2 316/316/2 315/315/2
f 289/289/2 286/286/2 285/285/2
f 344/344/2 345/345/2 371/371/2
f 345/345/2 346/346/2 371/371/2
f 346/346/2 372/372/2 371/371/2
f 371/371/2 370/370/2 344/344/2
f 344/344/2 370/370/2 343/343/2
f 370/370/2 369/369/2 343/343/2
f 343/343/2 369/369/2 368/368/2
f 347/347/2 342/342/2 348/348/2
f 342/342/2 341/341/2 350/350/2
f 348/348/2 342/342/2 349/349/2
f 341/341/2 343/343/2 368/368/2
f 367/367/2 366/366/2 359/359/2
f 366/366/2 365/365/2 360/360/2
f 341/341/2 368/368/2 358/358/2
f 368/368/2 367/367/2 358/358/2
f 358/358/2 367/367/2 359/359/2
f 350/350/2 349/349/2 342/342/2
f 366/366/2 360/360/2 359/359/2
f 365/365/2 364/364/2 361/361/2
f 364/364/2 363/363/2 362/362/2
f 361/361/2 364/364/2 362/362/2
f 361/361/2 360/360/2 365/365/2
f 351/351/2 350/350/2 341/341/2
f 352/352/2 351/351/2 341/341/2
f 353/353/2 352/352/2 358/358/2
f 352/352/2 341/341/2 358/358/2
f 356/356/2 355/355/2 354/354/2
f 354/354/2 353/353/2 357/357/2
f 357/357/2 353/353/2 358/358/2
f 374/374/2 373/373/2 385/385/2
f 373/373/2 375/375/2 386/386/2
f 385/385/2 373/373/2 386/386/2
f 375/375/2 376/376/2 387/387/2
f 376/376/2 377/377/2 389/389/2
f 377/377/2 378/378/2 390/390/2
f 378/378/2 391/391/2 390/390/2
f 390/390/2 389/389/2 377/377/2
f 379/379/2 374/374/2 385/385/2
f 381/381/2 380/380/2 385/385/2
f 380/380/2 379/379/2 385/385/2
f 383/383/2 382/382/2 381/381/2
f 385/385/2 384/384/2 383/383/2
f 385/385/2 383/383/2 381/381/2
f 376/376/2 389/389/2 388/388/2
f 376/376/2 388/388/2 387/387/2
f 393/393/2 392/392/2 394/394/2
f 393/393/2 394/394/2 395/395/2
f 399/399/2 398/398/2 397/397/2
f 397/397/2 393/393/2 448/448/2
f 393/393/2 395/395/2 448/448/2
f 396/396/2 451/451/2 450/450/2
f 395/395/2 396/396/2 449/449/2
f 401/401/2 400/400/2 428/428/2
f 400/400/2 399/399/2 429/429/2
f 428/428/2 400/400/2 429/429/2
f 395/395/2 449/449/2 448/448/2
f 396/396/2 450/450/2 449/449/2
f 402/402/2 401/401/2 405/405/2
f 405/405/2 401/401/2 427/427/2
f 399/399/2 397/397/2 430/430/2
f 401/401/2 428/428/2 427/427/2
f 404/404/2 403/403/2 402/402/2
f 407/407/2 406/406/2 411/411/2
f 406/406/2 405/405/2 426/426/2
f 411/411/2 406/406/2 426/426/2
f 405/405/2 404/404/2 402/402/2
f 408/408/2 407/407/2 410/410/2
f 410/410/2 407/407/2 411/411/2
f 410/410/2 409/409/2 408/408/2
f 413/413/2 412/412/2 420/420/2
f 412/412/2 411/411/2 424/424/2
f 420/420/2 412/412/2 424/424/2
f 414/414/2 413/413/2 419/419/2
f 397/397/2 448/448/2 447/447/2
f 399/399/2 430/430/2 429/429/2
f 413/413/2 420/420/2 419/419/2
f 416/416/2 415/415/2 417/417/2
f 415/415/2 414/414/2 418/418/2
f 418/418/2 417/417/2 415/415/2
f 446/446/2 445/445/2 443/443/2
f 445/445/2 444/444/2 443/443/2
f 447/447/2 446/446/2 442/442/2
f 446/446/2 443/443/2 442/442/2
f 419/419/2 418/418/2 414/414/2
f 447/447/2 442/442/2 431/431/2
f 442/442/2 441/441/2 432/432/2
f 431/431/2 442/442/2 432/432/2
f 441/441/2 440/440/2 439/439/2
f 439/439/2 438/438/2 441/441/2
f 438/438/2 437/437/2 435/435/2
f 437/437/2 436/436/2 435/435/2
f 434/434/2 433/433/2 432/432/2
f 438/438/2 435/435/2 441/441/2
f 435/435/2 434/434/2 441/441/2
f 434/434/2 432/432/2 441/441/2
f 447/447/2 431/431/2 397/397/2
f 431/431/2 430/430/2 397/397/2
f 425/425/2 411/411/2 426/426/2
f 423/423/2 422/422/2 421/421/2
f 424/424/2 423/423/2 421/421/2
f 425/425/2 424/424/2 411/411/2
f 424/424/2 421/421/2 420/420/2
f 456/456/2 457/457/2 486/486/2
f 457/457/2 487/487/2 486/486/2
f 455/455/2 456/456/2 464/464/2
f 456/456/2 486/486/2 485/485/2
f 456/456/2 485/485/2 465/465/2
f 464/464/2 456/456/2 465/465/2
f 454/454/2 455/455/2 463/463/2
f 455/455/2 464/464/2 463/463/2
f 485/485/2 484/484/2 474/474/2
f 458/458/2 453/453/2 452/452/2
f 459/459/2 458/458/2 452/452/2
f 461/461/2 460/460/2 462/462/2
f 460/460/2 459/459/2 454/454/2
f 462/462/2 460/460/2 463/463/2
f 463/463/2 460/460/2 454/454/2
f 459/459/2 452/452/2 454/454/2
f 465/465/2 485/485/2 474/474/2
f 467/467/2 466/466/2 465/465/2
f 483/483/2 482/482/2 481/481/2
f 484/484/2 483/483/2 480/480/2
f 474/474/2 484/484/2 475/475/2
f 468/468/2 467/467/2 469/469/2
f 467/467/2 465/465/2 472/472/2
f 469/469/2 467/467/2 472/472/2
f 483/483/2 481/481/2 480/480/2
f 470/470/2 469/469/2 472/472/2
f 472/472/2 471/471/2 470/470/2
f 480/480/2 479/479/2 484/484/2
f 479/479/2 478/478/2 476/476/2
f 478/478/2 477/477/2 476/476/2
f 473/473/2 472/472/2 465/465/2
f 474/474/2 473/473/2 465/465/2
f 479/479/2 476/476/2 484/484/2
f 144/144/3 143/143/3 387/387/3
f 39/39/4 283/283/4 284/284/4
f 144/144/5 388/388/5 389/389/5
f 40/40/6 284/284/6 285/285/6
f 145/145/7 389/389/7 390/390/7
f 41/41/8 285/285/8 286/286/8
f 146/146/9 390/390/9 391/391/9
f 42/42/10 286/286/10 287/287/10
f 147/147/11 391/391/11 378/378/11
f 43/43/246 287/287/246 288/288/246
f 152/152/13 392/392/13 393/393/13
f 45/45/14 44/44/14 288/288/14
f 149/149/15 394/394/15 392/392/15
f 45/45/16 289/289/16 290/290/16
f 150/150/17 395/395/17 394/394/17
f 46/46/18 290/290/18 291/291/18
f 151/151/19 396/396/19 395/395/19
f 47/47/20 291/291/20 292/292/20
f 49/49/21 48/48/21 292/292/21
f 153/153/22 393/393/22 397/397/22
f 49/49/23 293/293/23 294/294/23
f 154/154/24 397/397/24 398/398/24
f 50/50/25 294/294/25 295/295/25
f 155/155/26 398/398/26 399/399/26
f 52/52/27 51/51/27 295/295/27
f 156/156/28 399/399/28 400/400/28
f 52/52/29 296/296/29 297/297/29
f 157/157/30 400/400/30 401/401/30
f 53/53/31 297/297/31 298/298/31
f 158/158/32 401/401/32 402/402/32
f 55/55/33 54/54/33 298/298/33
f 159/159/34 402/402/34 403/403/34
f 55/55/35 299/299/35 300/300/35
f 161/161/36 160/160/36 403/403/36
f 56/56/37 300/300/37 301/301/37
f 162/162/38 161/161/38 404/404/38
f 57/57/39 301/301/39 302/302/39
f 162/162/40 405/405/40 406/406/40
f 58/58/41 302/302/41 303/303/41
f 163/163/42 406/406/42 407/407/42
f 59/59/43 303/303/43 304/304/43
f 164/164/44 407/407/44 408/408/44
f 61/61/45 60/60/45 304/304/45
f 165/165/46 408/408/46 409/409/46
f 61/61/47 305/305/47 306/306/47
f 166/166/48 409/409/48 410/410/48
f 62/62/49 306/306/49 307/307/49
f 168/168/50 167/167/50 410/410/50
f 63/63/51 307/307/51 308/308/51
f 168/168/52 411/411/52 412/412/52
f 65/65/53 64/64/53 308/308/53
f 169/169/54 412/412/54 413/413/54
f 65/65/55 309/309/55 310/310/55
f 170/170/56 413/413/56 414/414/56
f 66/66/57 310/310/57 311/311/57
f 171/171/58 414/414/58 415/415/58
f 67/67/59 311/311/59 312/312/59
f 172/172/60 415/415/60 416/416/60
f 68/68/61 312/312/61 313/313/61
f 174/174/62 173/173/62 416/416/62
f 69/69/63 313/313/63 314/314/63
f 174/174/64 417/417/64 418/418/64
f 70/70/65 314/314/65 315/315/65
f 176/176/66 175/175/66 418/418/66
f 72/72/67 71/71/67 315/315/67
f 177/177/68 176/176/68 419/419/68
f 72/72/69 316/316/69 317/317/69
f 178/178/247 177/177/247 420/420/247
f 73/73/71 317/317/71 318/318/71
f 178/178/72 421/421/72 422/422/72
f 74/74/73 318/318/73 319/319/73
f 179/179/74 422/422/74 423/423/74
f 75/75/75 319/319/75 320/320/75
f 180/180/76 423/423/76 424/424/76
f 77/77/77 76/76/77 320/320/77
f 181/181/78 424/424/78 425/425/78
f 77/77/79 321/321/79 322/322/79
f 183/183/80 182/182/80 425/425/80
f 79/79/81 78/78/81 322/322/81
f 184/184/82 183/183/82 426/426/82
f 80/80/83 79/79/83 323/323/83
f 185/185/84 184/184/84 427/427/84
f 81/81/85 80/80/85 324/324/85
f 185/185/86 428/428/86 429/429/86
f 81/81/87 325/325/87 326/326/87
f 186/186/88 429/429/88 430/430/88
f 82/82/89 326/326/89 327/327/89
f 187/187/90 430/430/90 431/431/90
f 83/83/91 327/327/91 328/328/91
f 188/188/92 431/431/92 432/432/92
f 85/85/93 84/84/93 328/328/93
f 189/189/94 432/432/94 433/433/94
f 86/86/95 85/85/95 329/329/95
f 191/191/96 190/190/96 433/433/96
f 86/86/97 330/330/97 331/331/97
f 191/191/98 434/434/98 435/435/98
f 88/88/99 87/87/99 331/331/99
f 192/192/100 435/435/100 436/436/100
f 89/89/101 88/88/101 332/332/101
f 193/193/102 436/436/102 437/437/102
f 89/89/103 333/333/103 334/334/103
f 195/195/104 194/194/104 437/437/104
f 90/90/105 334/334/105 335/335/105
f 196/196/106 195/195/106 438/438/106
f 91/91/107 335/335/107 336/336/107
f 196/196/108 439/439/108 440/440/108
f 92/92/109 336/336/109 337/337/109
f 197/197/110 440/440/110 441/441/110
f 93/93/111 337/337/111 338/338/111
f 199/199/112 198/198/112 441/441/112
f 94/94/113 338/338/113 339/339/113
f 200/200/114 199/199/114 442/442/114
f 95/95/115 339/339/115 340/340/115
f 200/200/116 443/443/116 444/444/116
f 96/96/117 340/340/117 250/250/117
f 201/201/118 444/444/118 445/445/118
f 102/102/119 101/101/119 341/341/119
f 202/202/120 445/445/120 446/446/120
f 98/98/121 343/343/121 341/341/121
f 203/203/122 446/446/122 447/447/122
f 99/99/123 344/344/123 343/343/123
f 205/205/124 204/204/124 447/447/124
f 99/99/125 100/100/125 345/345/125
f 205/205/126 448/448/126 449/449/126
f 100/100/127 97/97/127 346/346/127
f 207/207/128 206/206/128 449/449/128
f 102/102/129 342/342/129 347/347/129
f 207/207/130 450/450/130 451/451/130
f 103/103/131 347/347/131 348/348/131
f 208/208/132 451/451/132 396/396/132
f 104/104/133 348/348/133 349/349/133
f 213/213/134 452/452/134 453/453/134
f 105/105/135 349/349/135 350/350/135
f 6/6/136 5/5/136 245/245/136
f 210/210/137 454/454/137 452/452/137
f 106/106/138 350/350/138 351/351/138
f 2/2/139 247/247/139 245/245/139
f 211/211/140 455/455/140 454/454/140
f 108/108/141 107/107/141 351/351/141
f 3/3/142 248/248/142 247/247/142
f 212/212/143 456/456/143 455/455/143
f 109/109/144 108/108/144 352/352/144
f 3/3/145 4/4/145 249/249/145
f 209/209/146 457/457/146 456/456/146
f 109/109/147 353/353/147 354/354/147
f 4/4/148 1/1/148 250/250/148
f 214/214/149 453/453/149 458/458/149
f 110/110/150 354/354/150 355/355/150
f 6/6/151 246/246/151 251/251/151
f 215/215/152 458/458/152 459/459/152
f 111/111/153 355/355/153 356/356/153
f 8/8/154 7/7/154 251/251/154
f 216/216/155 459/459/155 460/460/155
f 112/112/156 356/356/156 357/357/156
f 8/8/157 252/252/157 253/253/157
f 217/217/158 460/460/158 461/461/158
f 113/113/159 357/357/159 358/358/159
f 10/10/160 9/9/160 253/253/160
f 218/218/161 461/461/161 462/462/161
f 114/114/162 358/358/162 359/359/162
f 10/10/163 254/254/163 255/255/163
f 219/219/164 462/462/164 463/463/164
f 115/115/165 359/359/165 360/360/165
f 11/11/166 255/255/166 256/256/166
f 220/220/167 463/463/167 464/464/167
f 117/117/248 116/116/248 360/360/248
f 12/12/169 256/256/169 257/257/169
f 221/221/249 464/464/249 465/465/249
f 118/118/171 117/117/171 361/361/171
f 14/14/172 13/13/172 257/257/172
f 222/222/173 465/465/173 466/466/173
f 119/119/174 118/118/174 362/362/174
f 14/14/175 258/258/175 259/259/175
f 223/223/176 466/466/176 467/467/176
f 119/119/177 363/363/177 364/364/177
f 15/15/178 259/259/178 260/260/178
f 225/225/179 224/224/179 467/467/179
f 120/120/180 364/364/180 365/365/180
f 16/16/181 260/260/181 261/261/181
f 225/225/182 468/468/182 469/469/182
f 121/121/183 365/365/183 366/366/183
f 17/17/184 261/261/184 262/262/184
f 227/227/185 226/226/185 469/469/185
f 122/122/186 366/366/186 367/367/186
f 18/18/187 262/262/187 263/263/187
f 228/228/188 227/227/188 470/470/188
f 123/123/189 367/367/189 368/368/189
f 19/19/190 263/263/190 264/264/190
f 228/228/250 471/471/250 472/472/250
f 124/124/192 368/368/192 369/369/192
f 20/20/193 264/264/193 265/265/193
f 229/229/194 472/472/194 473/473/194
f 125/125/195 369/369/195 370/370/195
f 21/21/196 265/265/196 266/266/196
f 231/231/197 230/230/197 473/473/197
f 126/126/198 370/370/198 371/371/198
f 22/22/199 266/266/199 267/267/199
f 231/231/200 474/474/200 475/475/200
f 127/127/201 371/371/201 372/372/201
f 23/23/202 267/267/202 268/268/202
f 232/232/203 475/475/203 476/476/203
f 128/128/204 372/372/204 346/346/204
f 24/24/205 268/268/205 269/269/205
f 233/233/206 476/476/206 477/477/206
f 133/133/207 373/373/207 374/374/207
f 25/25/208 269/269/208 270/270/208
f 234/234/209 477/477/209 478/478/209
f 130/130/210 375/375/210 373/373/210
f 27/27/211 26/26/211 270/270/211
f 235/235/212 478/478/212 479/479/212
f 131/131/213 376/376/213 375/375/213
f 27/27/214 271/271/214 272/272/214
f 237/237/215 236/236/215 479/479/215
f 132/132/216 377/377/216 376/376/216
f 28/28/251 272/272/251 273/273/251
f 237/237/218 480/480/218 481/481/218
f 129/129/219 378/378/219 377/377/219
f 29/29/220 273/273/220 274/274/220
f 238/238/221 481/481/221 482/482/221
f 134/134/222 374/374/222 379/379/222
f 30/30/252 274/274/252 275/275/252
f 239/239/224 482/482/224 483/483/224
f 135/135/225 379/379/225 380/380/225
f 32/32/226 31/31/226 275/275/226
f 240/240/227 483/483/227 484/484/227
f 136/136/228 380/380/228 381/381/228
f 32/32/229 276/276/229 277/277/229
f 241/241/230 484/484/230 485/485/230
f 138/138/231 137/137/231 381/381/231
f 33/33/232 277/277/232 278/278/232
f 242/242/233 485/485/233 486/486/233
f 138/138/234 382/382/234 383/383/234
f 34/34/235 278/278/235 279/279/235
f 243/243/236 486/486/236 487/487/236
f 140/140/237 139/139/237 383/383/237
f 35/35/238 279/279/238 280/280/238
f 244/244/253 487/487/253 457/457/253
f 140/140/240 384/384/240 385/385/240
f 37/37/241 36/36/241 280/280/241
f 141/141/242 385/385/242 386/386/242
f 38/38/243 37/37/243 281/281/243
f 142/142/244 386/386/244 387/387/244
f 38/38/245 282/282/245 283/283/245
f 488/1 488/1 488/1
f 489/1 489/1 489/1
f 490/1 490/1 490/1
f 491/1 491/1 491/1
f 492/1 492/1 492/1
f 493/1 493/1 493/1
f 494/1 494/1 494/1
f 495/1 495/1 495/1
